<?xml version="1.0" encoding="utf-8"?>
<!-- Generator: Adobe Illustrator 16.0.0, SVG Export Plug-In . SVG Version: 6.00 Build 0)  -->
<!DOCTYPE svg PUBLIC "-//W3C//DTD SVG 1.1//EN" "http://www.w3.org/Graphics/SVG/1.1/DTD/svg11.dtd">
<svg version="1.1" id="Layer_1" xmlns="http://www.w3.org/2000/svg" xmlns:xlink="http://www.w3.org/1999/xlink" x="0px" y="0px"
	 width="512px" height="512px" viewBox="0 0 512 512" enable-background="new 0 0 512 512" xml:space="preserve">
<circle fill="#A5C63B" cx="255" cy="257" r="91.125"/>
<path fill="#A5C63B" d="M482.479,165.875H314.066c29.804,19.358,49.519,52.938,49.519,91.125c0,18.777-4.768,36.443-13.157,51.852
	l0.062,0.037L238.739,501.45c5.376,0.352,10.795,0.55,16.261,0.55c135.311,0,245-109.689,245-245
	C500,224.794,493.774,194.044,482.479,165.875z"/>
<path fill="#A5C63B" d="M255,365.585c-46.99,0-87.004-29.849-102.127-71.617l-101.394-173.4C25.288,159.563,10,206.495,10,257
	c0,123.323,91.121,225.346,209.706,242.459l84.528-145.652C289.455,361.337,272.725,365.585,255,365.585z"/>
<path fill="#A5C63B" d="M255,12c-77.967,0-147.423,36.424-192.294,93.179l84.011,143.668
	c4.157-55.982,50.757-100.144,107.737-100.426v-0.007h220.209C434.631,67.583,351.312,12,255,12z M155.075,112.188
	c-11.058,0-20.021-8.964-20.021-20.021s8.963-20.021,20.021-20.021c11.057,0,20.021,8.964,20.021,20.021
	S166.132,112.188,155.075,112.188z M358.925,112.188c-11.058,0-20.021-8.964-20.021-20.021s8.963-20.021,20.021-20.021
	s20.021,8.964,20.021,20.021S369.982,112.188,358.925,112.188z"/>
</svg>
